# AST/ASF file generated using VICON BodyLanguage
# -----------------------------------------------
:version 1.10
:name VICON
:units
  mass 1.0
  length 0.45
  angle deg
:documentation
   .ast/.asf automatically generated from VICON data using
   VICON BodyBuilder and BodyLanguage model FoxedUp or BRILLIANT.MOD
:root
   order TX TY TZ RX RY RZ
   axis XYZ
   position 0 0 0  
   orientation 0 0 0 
:bonedata
  begin
     id 1 
     name lhipjoint
     direction 0.653368 -0.678499 0.335782 
     length 2.51848 
     axis 0 0 0  XYZ
  end
  begin
     id 2 
     name lfemur
     direction 0.34202 -0.939693 0  
     length 6.57749  
     axis 0 0 20  XYZ
    dof rx ry rz
    limits (-160.0 20.0)
           (-70.0 70.0)
           (-60.0 70.0)
  end
  begin
     id 3 
     name ltibia
     direction 0.34202 -0.939693 0   
     length 7.94618   
     axis 0 0 20   XYZ
    dof rx
    limits (-10.0 170.0)
  end
  begin
     id 4 
     name lfoot
     direction 0.0811271 -0.222895 0.971461   
     length 2.31339   
     axis -90 7.62852e-016 20   XYZ
    dof rx rz
    limits (-45.0 90.0)
           (-70.0 20.0)
  end
  begin
     id 5 
     name ltoes
     direction 1.53568e-011 -4.21885e-011 1   
     length 1.15935   
     axis -90 7.62852e-016 20   XYZ
    dof rx
    limits (-90.0 20.0)
  end
  begin
     id 6 
     name rhipjoint
     direction -0.640058 -0.688614 0.340788   
     length 2.48149  
     axis 0 0 0  XYZ 
  end
  begin
     id 7 
     name rfemur
     direction -0.34202 -0.939693 0   
     length 6.57875   
     axis 0 0 -20   XYZ
    dof rx ry rz
    limits (-160.0 20.0)
           (-70.0 70.0)
           (-70.0 60.0)
  end
  begin
     id 8 
     name rtibia
     direction -0.34202 -0.939693 0   
     length 7.977   
     axis 0 0 -20   XYZ
    dof rx
    limits (-10.0 170.0)
 end
 begin
     id 9 
     name rfoot
     direction -0.0979793 -0.269196 0.958089   
     length 2.19857  
     axis -90 -7.62852e-016 -20   XYZ
    dof rx rz
    limits (-45.0 90.0)
           (-20.0 70.0)
  end
  begin
     id 10 
     name rtoes
     direction -1.53556e-011 -4.21868e-011 1   
     length 1.09838   
     axis -90 -7.62852e-016 -20   XYZ
    dof rx
    limits (-90.0 20.0)
  end
  begin
     id 11 
     name lowerback
     direction 0.0149039 0.998517 -0.0523597   
     length 2.10809   
     axis 0 0 0   XYZ
    dof rx ry rz
    limits (-20.0 45.0)
           (-30.0 30.0)
           (-30.0 30.0)
  end
  begin
     id 12 
     name upperback
     direction -0.00882659 0.999418 -0.0329624   
     length 2.1102   
     axis 0 0 0   XYZ
    dof rx ry rz
    limits (-20.0 45.0)
           (-30.0 30.0)
           (-30.0 30.0)
  end
  begin
     id 13 
     name thorax
     direction -0.0165585 0.999826 -0.0085833   
     length 2.11039   
     axis 0 0 0   XYZ
    dof rx ry rz
    limits (-20.0 45.0)
           (-30.0 30.0)
           (-30.0 30.0)
  end
  begin
     id 14 
     name lowerneck
     direction -0.0130877 0.999911 0.00260353   
     length 1.73253   
     axis 0 0 0   XYZ
    dof rx ry rz
    limits (-20.0 45.0)
           (-30.0 30.0)
           (-30.0 30.0)
  end
  begin
     id 15 
     name upperneck
     direction -0.0348454 0.928205 -0.370435   
     length 1.66692   
     axis 0 0 0   XYZ
    dof rx ry rz
    limits (-20.0 45.0)
           (-30.0 30.0)
           (-30.0 30.0)
  end
  begin
     id 16
     name head
     direction -0.00807754 0.992494 -0.122026  
     length 1.72765  
     axis 0 0 0   XYZ
    dof rx ry rz
    limits (-20.0 45.0)
           (-30.0 30.0)
           (-30.0 30.0)
  end
  begin
     id 17 
     name lclavicle
     direction 0.987582 0.144023 0.0627671  
     length 3.49235  
     axis 0 0 0   XYZ
    dof ry rz
    limits (-20.0 10.0)
           (0.0 20.0)
  end
  begin
     id 18 
     name lhumerus
     direction 1 -4.48958e-011 -1.45183e-018   
     length 5.41917   
     axis 180 -30 -90   XYZ
    dof rx ry rz
    limits (-60.0 90.0)
           (-90.0 90.0)
           (-90.0 90.0)
  end
  begin
     id 19
     name lradius
     direction 1 -4.48999e-011 5.75106e-027   
     length 2.44373   
     axis 180 -30 -90   XYZ
    dof rx
    limits (-10.0 170.0)
  end
  begin
     id 20
     name lwrist
     direction 1 -4.48987e-011 1.53461e-026   
     length 1.22186   
     axis -1.09697e-014 90 90   XYZ
    dof ry
    limits (-180.0 0.0)
 end
  begin
     id 21 
     name lhand
     direction 1 -4.48881e-011 3.06923e-026   
     length 0.727502   
     axis -1.95843e-014 90 90   XYZ
    dof rx rz
    limits (-90.0 90.0)
           (-45.0 45.0)
  end
  begin
     id 22 
     name lfingers
     direction 1 -4.48907e-011 6.13845e-026   
     length 0.586531   
     axis -3.91686e-014 90 90   XYZ
    dof rx
    limits (0.0 90.0)
  end
  begin
     id 23
     name lthumb
     direction 0.707107 -6.3487e-011 0.707107   
     length 0.842145   
     axis -90 45 2.85299e-015   XYZ
    dof rx rz
    limits (-45.0 45.0)
           (-45.0 45.0)
  end
  begin
     id 24 
     name rclavicle
     direction -0.980998 0.169556 0.0943023   
     length 3.29272  
     axis 0 0 0   XYZ 
    dof ry rz
    limits (-10.0 20.0)
           (-20.0 0.0)
  end
  begin
     id 25 
     name rhumerus
     direction -1 -1.83355e-005 2.45537e-005  
     length 5.58976   
     axis 180 30 90   XYZ
    dof rx ry rz
    limits (-90.0 60.0)
           (-90.0 90.0)
           (-90.0 90.0)
  end
  begin
     id 26 
     name rradius
     direction -1 -4.48967e-011 5.97228e-027   
     length 2.4806   
     axis 180 30 90   XYZ
    dof rx
    limits (-10.0 170.0)
  end
  begin
     id 27 
     name rwrist
     direction -1 -4.48963e-011 1.53461e-026   
     length 1.2403   
     axis -1.09697e-014 -90 -90   XYZ
    dof ry
    limits (-180.0 0.0)
  end
  begin
     id 28
     name rhand
     direction -1 -4.48881e-011 3.06923e-026   
     length 0.816009   
     axis -1.95843e-014 -90 -90   XYZ
    dof rx rz
    limits (-90.0 90.0)
           (-45.0 45.0)
  end
  begin
     id 29
     name rfingers
     direction -1 -4.49018e-011 6.13845e-026   
     length 0.657887   
     axis -3.91686e-014 -90 -90   XYZ
    dof rx
    limits (0.0 90.0)
  end
  begin
     id 30
     name rthumb
     direction -0.707107 -6.34872e-011 0.707107   
     length 0.944599   
     axis -90 -45 -2.85299e-015   XYZ
    dof rx rz
    limits (-45.0 45.0)
           (-45.0 45.0)
  end
:hierarchy
  begin
    root lhipjoint rhipjoint lowerback
    lhipjoint lfemur
    lfemur ltibia
    ltibia lfoot
    lfoot ltoes
    rhipjoint rfemur
    rfemur rtibia
    rtibia rfoot
    rfoot rtoes
    lowerback upperback
    upperback thorax
    thorax lowerneck lclavicle rclavicle
    lowerneck upperneck
    upperneck head
    lclavicle lhumerus
    lhumerus lradius
    lradius lwrist
    lwrist lhand lthumb
    lhand lfingers
    rclavicle rhumerus
    rhumerus rradius
    rradius rwrist
    rwrist rhand rthumb
    rhand rfingers
  end

#!OML:ASF F:\VICON\USERDATA\INSTALL\rory3\rory3.ASF
:FULLY-SPECIFIED
:DEGREES
68
root -2.27385 15.4799 -27.3401 21.8351 -35.8081 -5.12233
lowerback -1.93252 1.55104 6.09011
upperback -6.83748 2.16921 1.33996
thorax -5.87239 0.759168 -2.06738
lowerneck -4.59587 -16.2575 -9.8363
upperneck 29.1484 -24.583 6.62927
head 12.5108 -11.6211 0.684461
rclavicle 1.11568e-014 -4.77083e-015
rhumerus -65.8534 -42.566 27.6216
rradius 10.9882
rwrist 69.7522
rhand -4.62926 11.0416
rfingers 7.12502
rthumb 21.1496 -17.8248
lclavicle 1.11568e-014 -4.77083e-015
lhumerus 10.3335 -52.5758 -0.51806
lradius 22.4214
lwrist -27.7356
lhand 3.83022 26.3152
lfingers 7.12502
lthumb 29.2536 54.0351
rfemur -43.2182 26.21 26.3207
rtibia 51.7386
rfoot -26.6404 -15.1124
rtoes 14.8534
lfemur -49.5569 -5.86236 -9.52928
ltibia 67.6036
lfoot -24.115 16.1489
ltoes -31.1457
69
root -2.25548 15.4887 -27.2212 22.8482 -39.036 -5.96968
lowerback -2.20396 0.399498 6.00904
upperback -7.33609 0.653056 2.56372
thorax -6.38889 0.0119928 -0.694314
lowerneck -4.15502 -15.2877 -16.4782
upperneck 31.9118 -23.5224 8.33647
head 14.7991 -11.6101 2.21612
rclavicle 1.13059e-014 -1.23246e-014
rhumerus -54.0962 -38.5396 13.9441
rradius 10.8677
rwrist 62.4098
rhand -3.61193 11.0437
rfingers 7.12502
rthumb 22.1266 -17.7102
lclavicle 1.13059e-014 -1.23246e-014
lhumerus 1.78413 -52.9368 6.48689
lradius 21.8456
lwrist -32.1588
lhand 3.58861 25.5526
lfingers 7.12502
lthumb 29.0229 53.3124
rfemur -43.3201 27.8555 25.83
rtibia 51.6031
rfoot -26.1969 -14.203
rtoes 12.5348
lfemur -49.7975 -6.725 -8.35211
ltibia 66.9112
lfoot -24.4927 14.7483
ltoes -34.602
70
root -2.24023 15.4889 -27.101 24.1198 -42.569 -6.75884
lowerback -2.25473 0.642355 5.77463
upperback -7.47925 0.963883 2.51315
thorax -6.49539 0.168768 -0.625147
lowerneck -1.71966 -14.9506 -14.9362
upperneck 29.3157 -22.9328 7.87457
head 12.7538 -11.4291 2.27292
rclavicle 5.97099e-014 3.97569e-016
rhumerus -50.1387 -33.1246 6.38444
rradius 11.0961
rwrist 55.1145
rhand -2.50912 11.3648
rfingers 7.12502
rthumb 23.185 -17.2598
lclavicle 5.97099e-014 3.97569e-016
lhumerus 1.50031 -54.8212 7.07193
lradius 21.9866
lwrist -34.4264
lhand 3.31314 25.2464
lfingers 7.12502
lthumb 28.7597 53.0512
rfemur -43.8447 29.7325 24.8541
rtibia 51.4678
rfoot -25.9431 -13.0187
rtoes 10.8729
lfemur -50.207 -6.44736 -7.60972
ltibia 66.211
lfoot -24.0231 13.798
ltoes -40.7481
71
root -2.21942 15.5429 -27.0144 25.6874 -45.3956 -7.23694
lowerback -2.32754 0.529027 5.19558
upperback -7.88802 0.803928 2.62444
thorax -6.90577 0.105854 -0.176354
lowerneck -1.79823 -15.0111 -14.4002
upperneck 29.2004 -22.8064 7.01534
head 12.5007 -11.4154 1.92411
rclavicle 8.25205e-014 1.59028e-014
rhumerus -46.7904 -27.3232 -0.789244
rradius 11.4461
rwrist 48.0937
rhand -2.10424 10.7902
rfingers 7.12502
rthumb 23.5734 -17.7849
lclavicle 8.25205e-014 1.59028e-014
lhumerus 0.287732 -57.2944 8.33352
lradius 22.2334
lwrist -36.2348
lhand 5.057 24.4927
lfingers 7.12502
lthumb 30.4243 52.0023
rfemur -44.9455 31.004 23.5209
rtibia 51.1487
rfoot -25.5655 -12.0914
rtoes 10.1402
lfemur -51.0918 -9.09608 -5.8991
ltibia 65.0319
lfoot -23.8978 13.6876
ltoes -42.8393
72
root -2.2067 15.5721 -26.853 26.1507 -49.2516 -7.52129
lowerback -2.13433 0.517918 4.1985
upperback -7.84241 0.786775 2.90041
thorax -6.975 0.165464 0.666516
lowerneck -1.80026 -14.8437 -14.3471
upperneck 29.0592 -22.2937 6.12237
head 12.2429 -11.2827 1.70304
rclavicle 7.55382e-015 -1.51076e-014
rhumerus -43.6679 -21.3823 -7.07038
rradius 11.9418
rwrist 41.3548
rhand -1.83328 9.94424
rfingers 7.12502
rthumb 23.8333 -18.5973
lclavicle 7.55382e-015 -1.51076e-014
lhumerus -2.73632 -59.7142 11.608
lradius 22.3664
lwrist -37.8385
lhand 5.1271 23.9796
lfingers 7.12502
lthumb 30.4912 51.4768
rfemur -44.6683 32.1961 22.195
rtibia 50.8694
rfoot -25.3263 -10.6799
rtoes 8.03308
lfemur -50.3571 -10.5036 -5.53373
ltibia 63.8649
lfoot -24.7515 11.5013
ltoes -40.2336
73
root -2.19895 15.5938 -26.6932 26.6764 -53.1525 -7.89537
lowerback -2.08946 1.19567 4.18742
upperback -7.61172 1.643 1.83423
thorax -6.69914 0.564807 -0.47688
lowerneck -0.637647 -15.0881 -16.1624
upperneck 28.5754 -23.4228 8.6316
head 12.5977 -11.7858 2.70269
rclavicle -4.50372e-014 -3.85642e-014
rhumerus -44.783 -18.5245 -10.4063
rradius 12.3426
rwrist 37.5666
rhand -1.42379 10.1932
rfingers 7.12502
rthumb 24.2259 -18.2965
lclavicle -4.50372e-014 -3.85642e-014
lhumerus 0.350699 -64.0722 8.64886
lradius 23.0444
lwrist -37.5375
lhand 7.02008 23.4737
lfingers 7.12502
lthumb 32.2948 50.6201
rfemur -44.4998 33.0345 20.9668
rtibia 50.7217
rfoot -25.0679 -8.95083
rtoes 4.80241
lfemur -49.5683 -10.8481 -5.54861
ltibia 62.8427
lfoot -25.1823 8.43123
ltoes -37.6527
74
root -2.17901 15.6453 -26.5815 28.1192 -56.111 -8.54573
lowerback -2.31197 0.793618 3.98885
upperback -7.96784 1.07926 1.89658
thorax -6.98029 0.280299 -0.276056
lowerneck 1.03621 -14.4022 -20.7139
upperneck 28.516 -23.3418 11.4216
head 13.3383 -12.0539 4.44362
rclavicle 5.62809e-015 -4.59193e-014
rhumerus -42.9189 -14.161 -15.0093
rradius 12.6926
rwrist 33.2658
rhand -0.740363 10.6926
rfingers 7.12502
rthumb 24.881 -17.7082
lclavicle 5.62809e-015 -4.59193e-014
lhumerus -6.79294 -59.1002 14.8131
lradius 23.0667
lwrist -46.5986
lhand 7.48423 21.9429
lfingers 7.12502
lthumb 32.7365 48.9984
rfemur -45.2859 33.1557 19.8553
rtibia 50.4521
rfoot -24.8865 -7.10219
rtoes 2.18378
lfemur -49.8265 -14.7048 -3.87888
ltibia 61.8082
lfoot -25.1005 9.86749
ltoes -39.248
75
root -2.14882 15.6296 -26.5069 30.7875 -58.9859 -9.78177
lowerback -2.85587 0.737425 3.47289
upperback -8.35091 0.94298 1.68648
thorax -7.08575 0.222361 -0.195873
lowerneck -0.336749 -15.0581 -16.8977
upperneck 29.1286 -23.6304 8.69476
head 12.9216 -11.9912 2.78121
rclavicle 3.16037e-014 -1.35174e-014
rhumerus -42.6183 -11.6942 -18.3804
rradius 13.0251
rwrist 29.8194
rhand 0.181267 11.2694
rfingers 7.12502
rthumb 25.764 -17.0063
lclavicle 3.16037e-014 -1.35174e-014
lhumerus -8.16888 -65.213 16.0856
lradius 23.7735
lwrist -44.2246
lhand 9.0597 22.6183
lfingers 7.12502
lthumb 34.234 49.3498
rfemur -47.3125 33.2027 18.7427
rtibia 50.3747
rfoot -24.7283 -5.11906
rtoes 0.833652
lfemur -51.2169 -12.3979 -3.29909
ltibia 61.2201
lfoot -23.3659 9.52138
ltoes -46.7405
76
root -2.13762 15.6735 -26.3732 33.6404 -62.2578 -12.1682
lowerback -3.03497 0.771067 3.52405
upperback -8.27595 0.961771 1.58576
thorax -6.89784 0.223658 -0.32858
lowerneck -0.289387 -15.2205 -17.838
upperneck 29.0496 -24.103 9.47153
head 13.2219 -12.2302 3.07628
rclavicle -2.35808e-014 3.65764e-014
rhumerus -41.9624 -8.11617 -22.8553
rradius 13.563
rwrist 25.9019
rhand -0.268966 10.4522
rfingers 7.12502
rthumb 25.3327 -17.8853
lclavicle -2.35808e-014 3.65764e-014
lhumerus -10.8546 -71.4315 18.9826
lradius 24.5244
lwrist -40.827
lhand 10.8097 23.3936
lfingers 7.12502
lthumb 35.8939 49.7361
rfemur -47.7133 33.1915 18.4009
rtibia 49.9318
rfoot -24.855 -2.61521
rtoes 0.277555
lfemur -51.0823 -13.339 -1.81462
ltibia 60.5398
lfoot -23.7486 7.92439
ltoes -45.8787
77
root -2.14098 15.7205 -26.2015 36.4734 -66.1694 -14.9113
lowerback -3.17668 0.996698 3.54433
upperback -8.09642 1.23671 1.38259
thorax -6.60786 0.355931 -0.557993
lowerneck -0.651659 -15.6436 -15.6187
upperneck 28.7413 -24.0741 7.21721
head 12.4701 -12.2064 2.0036
rclavicle 7.23825e-014 1.96797e-014
rhumerus -41.5327 -6.33886 -25.3422
rradius 13.9298
rwrist 24.1072
rhand 0.275706 10.7185
rfingers 7.12502
rthumb 25.8544 -17.5441
lclavicle 7.23825e-014 1.96797e-014
lhumerus -16.3788 -73.8171 24.8535
lradius 25.128
lwrist -40.4669
lhand 12.5861 23.4025
lfingers 7.12502
lthumb 37.5748 49.3162
rfemur -47.6473 33.9902 17.4669
rtibia 49.4566
rfoot -24.9317 -0.495109
rtoes 1.67549
lfemur -50.1438 -16.8733 -0.573574
ltibia 59.9559
lfoot -23.6426 10.1009
ltoes -46.8559
78
root -2.14036 15.7538 -26.0432 39.7308 -69.7935 -18.0516
lowerback -3.13776 1.10922 3.38286
upperback -8.03772 1.3683 1.14868
thorax -6.55815 0.421801 -0.715536
lowerneck 0.312546 -15.4885 -17.7213
upperneck 28.5455 -24.3294 8.64384
head 12.7802 -12.4479 2.7824
rclavicle 7.23079e-015 -3.08116e-014
rhumerus -41.3376 -3.95462 -28.1841
rradius 14.5752
rwrist 21.7672
rhand 1.45652 10.4996
rfingers 7.12502
rthumb 26.9847 -17.5932
lclavicle 7.23079e-015 -3.08116e-014
lhumerus -22.6867 -74.8723 31.4069
lradius 25.5633
lwrist -40.5525
lhand 14.0791 23.3284
lfingers 7.12502
lthumb 38.9841 48.8529
rfemur -47.6786 34.559 16.4887
rtibia 49.0019
rfoot -24.8191 1.30175
rtoes 3.76493
lfemur -49.4577 -20.1245 0.463415
ltibia 59.4498
lfoot -23.9659 10.044
ltoes -44.6516
